<?xml version="1.0" encoding="UTF-8"?>
<svg id="Layer_1" data-name="Layer 1" xmlns="http://www.w3.org/2000/svg" viewBox="0 0 815.23 200.9">
  <defs>
    <style>
      .cls-1 {
        fill: #fff;
      }
    </style>
  </defs>
  <g>
    <g>
      <g>
        <g>
          <path class="cls-1" d="M279.45,80.64h-21.11c0,4.9-1.99,9.33-5.2,12.54-3.21,3.21-7.64,5.2-12.54,5.2v21.11c10.73,0,20.44-4.35,27.47-11.38,7.03-7.03,11.38-16.74,11.38-27.47Z"/>
          <rect class="cls-1" x="258.34" y="41.8" width="21.11" height="19.43"/>
        </g>
        <g>
          <path class="cls-1" d="M326.18,62.87v23.36c0,7.91-.37,12.9-1.09,14.93-.75,2.03-2.1,3.75-4.09,5.1-1.99,1.39-4.24,2.06-6.71,2.06-2.21,0-4.01-.53-5.44-1.54-1.43-1.01-2.4-2.4-2.93-4.16-.56-1.76-.83-6.53-.83-14.33v-25.43h-14.66v35.03c0,5.21,.68,9.3,1.99,12.26,1.31,2.96,3.45,5.25,6.41,6.86,2.96,1.65,6.3,2.48,10.01,2.48s7.13-.86,10.43-2.55c3.26-1.73,5.93-4.05,7.95-7.01v8.29h13.58V62.87h-14.63Z"/>
          <path class="cls-1" d="M392.14,41.8v27.53c-4.54-5.14-9.9-7.73-16.09-7.73-6.75,0-12.3,2.44-16.73,7.35-4.43,4.88-6.64,12-6.64,21.38s2.29,16.35,6.83,21.49c4.54,5.1,9.98,7.69,16.35,7.69,3.11,0,6.23-.79,9.3-2.33,3.08-1.54,5.74-3.9,7.99-7.09v8.14h13.61V41.8h-14.63Zm-3.53,61.8c-2.36,2.89-5.21,4.31-8.59,4.31-4.24,0-7.54-1.91-9.9-5.74-1.65-2.63-2.48-6.9-2.48-12.83,0-5.48,1.2-9.64,3.53-12.38,2.36-2.78,5.29-4.16,8.74-4.16s6.53,1.43,8.81,4.2c2.29,2.81,3.45,7.39,3.45,13.76,0,5.7-1.2,9.98-3.56,12.83Z"/>
          <path class="cls-1" d="M466.7,110.8c-.45-2.29-.68-5.89-.68-10.76l.15-17.1c0-6.38-.64-10.73-1.95-13.13-1.31-2.36-3.56-4.35-6.75-5.89-3.23-1.54-8.06-2.33-14.63-2.33-7.16,0-12.6,1.31-16.24,3.86-3.68,2.59-6.23,6.53-7.73,11.89l13.28,2.4c.9-2.55,2.1-4.35,3.56-5.4,1.46-1.01,3.49-1.54,6.11-1.54,3.83,0,6.45,.6,7.88,1.8,1.39,1.2,2.06,3.23,2.06,6.04v1.46c-2.63,1.09-7.39,2.29-14.21,3.6-5.1,.98-8.96,2.1-11.66,3.41-2.7,1.31-4.8,3.19-6.3,5.63-1.5,2.44-2.21,5.25-2.21,8.36,0,4.73,1.61,8.63,4.91,11.74,3.26,3.08,7.76,4.65,13.46,4.65,3.26,0,6.3-.64,9.15-1.84,2.85-1.2,5.51-3.04,8.03-5.48,.11,.26,.26,.86,.52,1.73,.53,1.91,1.01,3.34,1.39,4.31h14.51c-1.31-2.62-2.18-5.1-2.66-7.43Zm-14.93-16.24c0,3.53-.19,5.89-.56,7.16-.56,1.91-1.73,3.53-3.49,4.84-2.4,1.73-4.91,2.59-7.58,2.59-2.36,0-4.31-.75-5.85-2.21-1.5-1.5-2.29-3.3-2.29-5.33s.98-3.83,2.89-5.18c1.24-.82,3.9-1.69,7.95-2.55,4.09-.86,7.05-1.61,8.93-2.25v2.93Z"/>
        </g>
      </g>
      <g>
        <path class="cls-1" d="M526.31,71.21c-3.21,3.21-5.19,7.64-5.19,12.54h17.73c0,10.72-4.34,20.43-11.38,27.46-7.03,7.03-16.73,11.38-27.46,11.38v-21.11c4.89,0,9.33-1.98,12.53-5.19,3.21-3.2,5.19-7.64,5.19-12.53h-17.73c0-10.73,4.35-20.44,11.38-27.47,7.03-7.03,16.74-11.38,27.46-11.38v21.11c-4.89,0-9.33,1.98-12.53,5.19Z"/>
        <g>
          <path class="cls-1" d="M584.68,105.93c-2.55,.94-4.54,1.43-5.89,1.43-.98,0-1.8-.26-2.48-.75s-1.13-1.09-1.31-1.84-.26-3.38-.26-7.91v-22.31h10.01v-11.66h-10.01v-19.58l-14.7,8.55v11.03h-6.75v11.66h6.75v24.15c0,5.18,.15,8.63,.45,10.31,.37,2.4,1.09,4.31,2.06,5.7,1.01,1.43,2.55,2.59,4.69,3.45,2.1,.9,4.5,1.35,7.13,1.35,4.31,0,8.18-.75,11.59-2.21l-1.27-11.36Z"/>
          <path class="cls-1" d="M630.32,62.87v23.36c0,7.91-.38,12.9-1.09,14.93-.75,2.03-2.1,3.75-4.09,5.1-1.99,1.39-4.2,2.06-6.71,2.06-2.21,0-4.01-.53-5.44-1.54-1.43-1.01-2.4-2.4-2.93-4.16-.56-1.76-.82-6.53-.82-14.33v-25.43h-14.66v35.03c0,5.21,.68,9.3,1.99,12.26,1.35,2.96,3.49,5.25,6.41,6.86,2.96,1.65,6.3,2.48,10.01,2.48s7.13-.86,10.43-2.55c3.26-1.73,5.93-4.05,7.95-7.01v8.29h13.61V62.87h-14.66Z"/>
          <path class="cls-1" d="M696.29,41.8v27.53c-4.54-5.14-9.9-7.73-16.09-7.73-6.71,0-12.3,2.44-16.73,7.35-4.43,4.88-6.6,12-6.6,21.38s2.25,16.35,6.79,21.49c4.54,5.1,9.98,7.69,16.35,7.69,3.11,0,6.23-.79,9.3-2.33,3.08-1.54,5.74-3.9,7.99-7.09v8.14h13.61V41.8h-14.63Zm-3.49,61.8c-2.4,2.89-5.25,4.31-8.63,4.31-4.24,0-7.54-1.91-9.9-5.74-1.65-2.63-2.44-6.9-2.44-12.83,0-5.48,1.16-9.64,3.49-12.38,2.36-2.78,5.29-4.16,8.74-4.16s6.53,1.43,8.81,4.2c2.29,2.81,3.45,7.39,3.45,13.76,0,5.7-1.16,9.98-3.53,12.83Z"/>
          <path class="cls-1" d="M725.35,62.87v55.35h14.66V62.87h-14.66Zm0-21.08v13.54h14.66v-13.54h-14.66Z"/>
          <path class="cls-1" d="M800.77,69.77c-5.36-5.44-12.23-8.18-20.59-8.18-5.44,0-10.35,1.2-14.74,3.6-4.39,2.4-7.8,5.89-10.2,10.43-2.4,4.58-3.6,9.26-3.6,14.14,0,6.38,1.2,11.78,3.6,16.2,2.4,4.43,5.93,7.8,10.5,10.09,4.61,2.29,9.45,3.45,14.55,3.45,8.18,0,15-2.78,20.4-8.29,5.4-5.51,8.1-12.45,8.1-20.81s-2.66-15.19-8.03-20.63Zm-10.91,33.38c-2.59,2.93-5.81,4.39-9.64,4.39s-7.05-1.46-9.64-4.39c-2.62-2.89-3.9-7.13-3.9-12.6s1.28-9.71,3.9-12.6c2.59-2.93,5.81-4.39,9.64-4.39s7.05,1.46,9.64,4.39c2.59,2.89,3.86,7.09,3.86,12.49s-1.28,9.83-3.86,12.71Z"/>
        </g>
      </g>
    </g>
    <g>
      <path class="cls-1" d="M246.86,154.78v-17.57h-6.28v-3.58h16.81v3.58h-6.26v17.57h-4.27Z"/>
      <path class="cls-1" d="M262.37,154.78h-4.05v-15.32h3.77v2.18c.64-1.03,1.22-1.71,1.74-2.03,.51-.33,1.1-.49,1.75-.49,.92,0,1.81,.26,2.67,.77l-1.25,3.53c-.68-.44-1.32-.66-1.9-.66s-1.05,.16-1.44,.47c-.4,.31-.7,.88-.93,1.7-.23,.82-.34,2.53-.34,5.13v4.73Z"/>
      <path class="cls-1" d="M273.02,144.13l-3.68-.66c.41-1.48,1.13-2.58,2.14-3.29,1.01-.71,2.51-1.07,4.5-1.07,1.81,0,3.15,.21,4.04,.64s1.51,.97,1.87,1.63c.36,.66,.54,1.87,.54,3.63l-.04,4.73c0,1.35,.07,2.34,.2,2.98,.13,.64,.37,1.32,.73,2.06h-4.01c-.11-.27-.24-.67-.39-1.2-.07-.24-.12-.4-.14-.48-.69,.67-1.43,1.18-2.22,1.51-.79,.34-1.63,.51-2.52,.51-1.58,0-2.82-.43-3.73-1.28-.91-.86-1.36-1.94-1.36-3.25,0-.87,.21-1.64,.62-2.32,.41-.68,.99-1.2,1.74-1.56,.75-.36,1.82-.68,3.22-.94,1.9-.36,3.21-.69,3.94-1v-.4c0-.78-.19-1.33-.58-1.67-.38-.33-1.11-.5-2.18-.5-.72,0-1.28,.14-1.69,.43-.4,.28-.73,.78-.98,1.49Zm5.42,3.29c-.52,.17-1.34,.38-2.47,.62-1.13,.24-1.86,.48-2.21,.71-.53,.37-.79,.85-.79,1.43s.21,1.06,.63,1.47c.42,.41,.96,.62,1.62,.62,.73,0,1.43-.24,2.09-.72,.49-.36,.81-.81,.97-1.34,.11-.35,.16-1.01,.16-1.98v-.81Z"/>
      <path class="cls-1" d="M300.36,154.78h-4.05v-7.82c0-1.65-.09-2.72-.26-3.21-.17-.48-.45-.86-.84-1.13-.39-.27-.86-.4-1.41-.4-.7,0-1.33,.19-1.89,.58-.56,.38-.94,.89-1.15,1.53-.21,.64-.31,1.81-.31,3.52v6.94h-4.05v-15.32h3.76v2.25c1.34-1.73,3.02-2.6,5.05-2.6,.89,0,1.71,.16,2.45,.48,.74,.32,1.3,.73,1.68,1.23,.38,.5,.64,1.07,.79,1.7,.15,.63,.22,1.54,.22,2.73v9.52Z"/>
      <path class="cls-1" d="M303.04,150.4l4.07-.62c.17,.79,.53,1.39,1.05,1.8,.53,.41,1.27,.61,2.22,.61,1.05,0,1.84-.19,2.37-.58,.36-.27,.53-.63,.53-1.08,0-.31-.1-.56-.29-.77-.2-.19-.65-.37-1.36-.53-3.27-.72-5.34-1.38-6.22-1.98-1.21-.83-1.82-1.98-1.82-3.45,0-1.33,.52-2.44,1.57-3.35,1.05-.9,2.67-1.36,4.88-1.36s3.65,.34,4.67,1.02c1.02,.68,1.72,1.69,2.11,3.03l-3.82,.71c-.16-.6-.47-1.05-.93-1.37-.46-.32-1.11-.48-1.96-.48-1.07,0-1.83,.15-2.29,.45-.31,.21-.46,.49-.46,.82,0,.29,.13,.53,.4,.74,.36,.27,1.63,.65,3.79,1.14,2.16,.49,3.67,1.09,4.52,1.8,.85,.72,1.27,1.73,1.27,3.02,0,1.4-.59,2.61-1.76,3.62-1.17,1.01-2.91,1.51-5.21,1.51-2.09,0-3.74-.42-4.96-1.27-1.22-.85-2.01-1.99-2.39-3.45Z"/>
      <path class="cls-1" d="M319.12,139.45h2.25v-1.15c0-1.29,.14-2.25,.41-2.88,.27-.64,.78-1.15,1.51-1.55s1.67-.6,2.79-.6,2.28,.17,3.39,.52l-.55,2.83c-.64-.15-1.26-.23-1.86-.23s-1.01,.14-1.26,.41c-.26,.27-.38,.8-.38,1.58v1.08h3.03v3.19h-3.03v12.13h-4.05v-12.13h-2.25v-3.19Z"/>
      <path class="cls-1" d="M329.8,146.9c0-1.35,.33-2.65,1-3.91,.66-1.26,1.6-2.22,2.82-2.88,1.22-.66,2.57-1,4.08-1,2.32,0,4.22,.75,5.7,2.26,1.48,1.5,2.22,3.41,2.22,5.7s-.75,4.24-2.24,5.76c-1.5,1.52-3.38,2.29-5.65,2.29-1.41,0-2.74-.32-4.02-.95-1.27-.63-2.24-1.57-2.91-2.79-.66-1.23-1-2.72-1-4.48Zm4.15,.22c0,1.52,.36,2.68,1.08,3.49,.72,.81,1.61,1.21,2.67,1.21s1.95-.4,2.66-1.21c.72-.81,1.08-1.98,1.08-3.52s-.36-2.65-1.08-3.46c-.72-.81-1.6-1.21-2.66-1.21s-1.95,.4-2.67,1.21c-.72,.81-1.08,1.97-1.08,3.49Z"/>
      <path class="cls-1" d="M352.67,154.78h-4.05v-15.32h3.77v2.18c.64-1.03,1.22-1.71,1.74-2.03,.51-.33,1.1-.49,1.75-.49,.92,0,1.81,.26,2.67,.77l-1.25,3.53c-.68-.44-1.32-.66-1.9-.66s-1.05,.16-1.44,.47c-.4,.31-.7,.88-.93,1.7-.23,.82-.34,2.53-.34,5.13v4.73Z"/>
      <path class="cls-1" d="M359.98,139.45h3.74v2.09c1.34-1.63,2.93-2.44,4.77-2.44,.98,0,1.83,.2,2.55,.61s1.31,1.01,1.77,1.83c.67-.82,1.4-1.43,2.18-1.83s1.61-.61,2.5-.61c1.12,0,2.08,.23,2.86,.69,.78,.46,1.36,1.13,1.74,2.01,.28,.65,.42,1.71,.42,3.17v9.8h-4.05v-8.76c0-1.52-.14-2.5-.42-2.94-.37-.58-.95-.87-1.73-.87-.57,0-1.1,.17-1.6,.52-.5,.35-.86,.85-1.08,1.52-.22,.67-.33,1.72-.33,3.17v7.36h-4.05v-8.4c0-1.49-.07-2.45-.22-2.88-.14-.43-.37-.76-.67-.97-.3-.21-.71-.32-1.23-.32-.63,0-1.19,.17-1.69,.51-.5,.34-.86,.82-1.08,1.46-.22,.63-.32,1.69-.32,3.16v7.44h-4.05v-15.32Z"/>
      <path class="cls-1" d="M399.81,154.78v-8.9l-7.75-12.25h5.01l4.98,8.37,4.88-8.37h4.92l-7.78,12.28v8.87h-4.25Z"/>
      <path class="cls-1" d="M410.8,146.9c0-1.35,.33-2.65,1-3.91,.66-1.26,1.6-2.22,2.82-2.88,1.22-.66,2.57-1,4.08-1,2.32,0,4.22,.75,5.7,2.26,1.48,1.5,2.22,3.41,2.22,5.7s-.75,4.24-2.24,5.76c-1.5,1.52-3.38,2.29-5.65,2.29-1.41,0-2.74-.32-4.02-.95-1.27-.63-2.24-1.57-2.91-2.79-.66-1.23-1-2.72-1-4.48Zm4.15,.22c0,1.52,.36,2.68,1.08,3.49,.72,.81,1.61,1.21,2.67,1.21s1.95-.4,2.66-1.21c.72-.81,1.08-1.98,1.08-3.52s-.36-2.65-1.08-3.46c-.72-.81-1.6-1.21-2.66-1.21s-1.95,.4-2.67,1.21c-.72,.81-1.08,1.97-1.08,3.49Z"/>
      <path class="cls-1" d="M439.87,154.78v-2.29c-.56,.82-1.29,1.46-2.2,1.93-.91,.47-1.87,.71-2.88,.71s-1.95-.23-2.77-.68c-.82-.45-1.41-1.09-1.77-1.9-.37-.82-.55-1.95-.55-3.39v-9.69h4.05v7.04c0,2.15,.07,3.47,.22,3.96s.42,.87,.82,1.15c.39,.28,.89,.43,1.5,.43,.69,0,1.31-.19,1.86-.57,.55-.38,.92-.85,1.13-1.41,.2-.56,.3-1.94,.3-4.13v-6.46h4.05v15.32h-3.76Z"/>
      <path class="cls-1" d="M451.72,154.78h-4.05v-15.32h3.77v2.18c.64-1.03,1.22-1.71,1.74-2.03,.51-.33,1.1-.49,1.75-.49,.92,0,1.81,.26,2.67,.77l-1.25,3.53c-.68-.44-1.32-.66-1.9-.66s-1.05,.16-1.44,.47c-.4,.31-.7,.88-.93,1.7-.23,.82-.34,2.53-.34,5.13v4.73Z"/>
      <path class="cls-1" d="M466.71,144.33c0-2.15,.32-3.96,.97-5.42,.48-1.08,1.14-2.04,1.97-2.9,.83-.86,1.74-1.49,2.73-1.9,1.32-.56,2.84-.84,4.56-.84,3.12,0,5.61,.97,7.48,2.9,1.87,1.93,2.81,4.62,2.81,8.06s-.93,6.09-2.78,8.01c-1.86,1.93-4.34,2.89-7.44,2.89s-5.65-.96-7.5-2.88c-1.86-1.92-2.78-4.56-2.78-7.93Zm4.4-.14c0,2.39,.55,4.21,1.66,5.45,1.11,1.24,2.51,1.85,4.21,1.85s3.1-.61,4.19-1.84c1.09-1.23,1.64-3.07,1.64-5.52s-.53-4.23-1.59-5.42c-1.06-1.19-2.47-1.79-4.23-1.79s-3.18,.6-4.26,1.81c-1.08,1.21-1.62,3.03-1.62,5.46Z"/>
      <path class="cls-1" d="M504.46,154.78h-4.05v-7.82c0-1.65-.09-2.72-.26-3.21-.17-.48-.45-.86-.84-1.13-.39-.27-.86-.4-1.41-.4-.7,0-1.33,.19-1.89,.58-.56,.38-.94,.89-1.15,1.53-.21,.64-.31,1.81-.31,3.52v6.94h-4.05v-15.32h3.76v2.25c1.34-1.73,3.02-2.6,5.05-2.6,.89,0,1.71,.16,2.45,.48,.74,.32,1.3,.73,1.68,1.23,.38,.5,.64,1.07,.79,1.7,.15,.63,.22,1.54,.22,2.73v9.52Z"/>
      <path class="cls-1" d="M508.57,154.78v-21.15h4.05v21.15h-4.05Z"/>
      <path class="cls-1" d="M516.78,137.38v-3.75h4.05v3.75h-4.05Zm0,17.4v-15.32h4.05v15.32h-4.05Z"/>
      <path class="cls-1" d="M538.92,154.78h-4.05v-7.82c0-1.65-.09-2.72-.26-3.21-.17-.48-.45-.86-.84-1.13-.39-.27-.86-.4-1.41-.4-.7,0-1.33,.19-1.89,.58-.56,.38-.94,.89-1.15,1.53-.21,.64-.31,1.81-.31,3.52v6.94h-4.05v-15.32h3.76v2.25c1.34-1.73,3.02-2.6,5.05-2.6,.89,0,1.71,.16,2.45,.48,.74,.32,1.3,.73,1.68,1.23,.38,.5,.64,1.07,.79,1.7,.15,.63,.22,1.54,.22,2.73v9.52Z"/>
      <path class="cls-1" d="M551.91,149.9l4.04,.68c-.52,1.48-1.34,2.61-2.46,3.38-1.12,.77-2.52,1.16-4.2,1.16-2.66,0-4.64-.87-5.92-2.61-1.01-1.4-1.51-3.16-1.51-5.28,0-2.54,.66-4.53,1.99-5.96,1.33-1.44,3.01-2.16,5.04-2.16,2.28,0,4.08,.75,5.39,2.26,1.32,1.5,1.95,3.81,1.89,6.92h-10.16c.03,1.2,.36,2.14,.98,2.81,.62,.67,1.4,1,2.34,1,.64,0,1.17-.17,1.6-.52,.43-.35,.76-.9,.98-1.67Zm.23-4.1c-.03-1.17-.33-2.06-.91-2.68-.58-.61-1.28-.92-2.11-.92-.88,0-1.62,.32-2.19,.97-.58,.65-.86,1.52-.85,2.63h6.06Z"/>
      <path class="cls-1" d="M567.7,154.78v-21.15h6.85c2.6,0,4.29,.11,5.08,.32,1.21,.32,2.23,1.01,3.04,2.07,.82,1.06,1.23,2.44,1.23,4.12,0,1.3-.24,2.39-.71,3.27-.47,.88-1.07,1.58-1.8,2.08s-1.46,.84-2.21,1c-1.02,.2-2.5,.3-4.43,.3h-2.79v7.98h-4.27Zm4.27-17.57v6h2.34c1.68,0,2.81-.11,3.38-.33,.57-.22,1.01-.57,1.33-1.04,.32-.47,.48-1.02,.48-1.65,0-.77-.23-1.4-.68-1.9-.45-.5-1.02-.81-1.72-.94-.51-.1-1.53-.14-3.07-.14h-2.06Z"/>
      <path class="cls-1" d="M591.26,154.78h-4.05v-15.32h3.77v2.18c.64-1.03,1.22-1.71,1.74-2.03,.51-.33,1.1-.49,1.75-.49,.92,0,1.81,.26,2.67,.77l-1.25,3.53c-.68-.44-1.32-.66-1.9-.66s-1.05,.16-1.44,.47c-.4,.31-.7,.88-.93,1.7-.23,.82-.34,2.53-.34,5.13v4.73Z"/>
      <path class="cls-1" d="M607.75,149.9l4.04,.68c-.52,1.48-1.34,2.61-2.46,3.38-1.12,.77-2.52,1.16-4.2,1.16-2.66,0-4.64-.87-5.92-2.61-1.01-1.4-1.51-3.16-1.51-5.28,0-2.54,.66-4.53,1.99-5.96,1.33-1.44,3.01-2.16,5.04-2.16,2.28,0,4.08,.75,5.39,2.26,1.32,1.5,1.95,3.81,1.89,6.92h-10.16c.03,1.2,.36,2.14,.98,2.81,.62,.67,1.4,1,2.34,1,.64,0,1.17-.17,1.6-.52,.43-.35,.76-.9,.98-1.67Zm.23-4.1c-.03-1.17-.33-2.06-.91-2.68-.58-.61-1.28-.92-2.11-.92-.88,0-1.62,.32-2.19,.97-.58,.65-.86,1.52-.85,2.63h6.06Z"/>
      <path class="cls-1" d="M613.88,150.4l4.07-.62c.17,.79,.53,1.39,1.05,1.8,.53,.41,1.27,.61,2.22,.61,1.05,0,1.84-.19,2.37-.58,.36-.27,.53-.63,.53-1.08,0-.31-.1-.56-.29-.77-.2-.19-.65-.37-1.36-.53-3.27-.72-5.34-1.38-6.22-1.98-1.21-.83-1.82-1.98-1.82-3.45,0-1.33,.52-2.44,1.57-3.35,1.05-.9,2.67-1.36,4.88-1.36s3.65,.34,4.67,1.02c1.02,.68,1.72,1.69,2.11,3.03l-3.82,.71c-.16-.6-.47-1.05-.93-1.37-.46-.32-1.11-.48-1.96-.48-1.07,0-1.83,.15-2.29,.45-.31,.21-.46,.49-.46,.82,0,.29,.13,.53,.4,.74,.36,.27,1.63,.65,3.79,1.14,2.16,.49,3.67,1.09,4.52,1.8,.85,.72,1.27,1.73,1.27,3.02,0,1.4-.59,2.61-1.76,3.62-1.17,1.01-2.91,1.51-5.21,1.51-2.09,0-3.74-.42-4.96-1.27-1.22-.85-2.01-1.99-2.39-3.45Z"/>
      <path class="cls-1" d="M640.61,149.9l4.04,.68c-.52,1.48-1.34,2.61-2.46,3.38-1.12,.77-2.52,1.16-4.2,1.16-2.66,0-4.64-.87-5.92-2.61-1.01-1.4-1.51-3.16-1.51-5.28,0-2.54,.66-4.53,1.99-5.96,1.33-1.44,3.01-2.16,5.04-2.16,2.28,0,4.08,.75,5.39,2.26,1.32,1.5,1.95,3.81,1.89,6.92h-10.16c.03,1.2,.36,2.14,.98,2.81,.62,.67,1.4,1,2.34,1,.64,0,1.17-.17,1.6-.52,.43-.35,.76-.9,.98-1.67Zm.23-4.1c-.03-1.17-.33-2.06-.91-2.68-.58-.61-1.28-.92-2.11-.92-.88,0-1.62,.32-2.19,.97-.58,.65-.86,1.52-.85,2.63h6.06Z"/>
      <path class="cls-1" d="M662.11,154.78h-4.05v-7.82c0-1.65-.09-2.72-.26-3.21-.17-.48-.45-.86-.84-1.13-.39-.27-.86-.4-1.41-.4-.7,0-1.33,.19-1.89,.58-.56,.38-.94,.89-1.15,1.53-.21,.64-.31,1.81-.31,3.52v6.94h-4.05v-15.32h3.76v2.25c1.34-1.73,3.02-2.6,5.05-2.6,.89,0,1.71,.16,2.45,.48,.74,.32,1.3,.73,1.68,1.23,.38,.5,.64,1.07,.79,1.7,.15,.63,.22,1.54,.22,2.73v9.52Z"/>
      <path class="cls-1" d="M679.58,143.98l-4,.72c-.13-.8-.44-1.4-.92-1.8s-1.09-.61-1.85-.61c-1.01,0-1.82,.35-2.42,1.05-.6,.7-.9,1.86-.9,3.5,0,1.82,.3,3.1,.92,3.85,.61,.75,1.43,1.12,2.46,1.12,.77,0,1.4-.22,1.89-.66,.49-.44,.84-1.19,1.04-2.26l3.98,.68c-.41,1.83-1.21,3.21-2.38,4.14-1.17,.93-2.75,1.4-4.72,1.4-2.24,0-4.03-.71-5.36-2.12s-2-3.37-2-5.87,.67-4.5,2-5.91c1.34-1.41,3.14-2.11,5.42-2.11,1.87,0,3.35,.4,4.45,1.21,1.1,.8,1.89,2.03,2.37,3.67Z"/>
      <path class="cls-1" d="M691.52,149.9l4.04,.68c-.52,1.48-1.34,2.61-2.46,3.38-1.12,.77-2.52,1.16-4.2,1.16-2.66,0-4.64-.87-5.92-2.61-1.01-1.4-1.51-3.16-1.51-5.28,0-2.54,.66-4.53,1.99-5.96,1.33-1.44,3.01-2.16,5.04-2.16,2.28,0,4.08,.75,5.39,2.26,1.32,1.5,1.95,3.81,1.89,6.92h-10.16c.03,1.2,.36,2.14,.98,2.81,.62,.67,1.4,1,2.34,1,.64,0,1.17-.17,1.6-.52,.43-.35,.76-.9,.98-1.67Zm.23-4.1c-.03-1.17-.33-2.06-.91-2.68-.58-.61-1.28-.92-2.11-.92-.88,0-1.62,.32-2.19,.97-.58,.65-.86,1.52-.85,2.63h6.06Z"/>
      <path class="cls-1" d="M710.15,154.78l-4.85-15.32h3.94l2.87,10.04,2.64-10.04h3.91l2.55,10.04,2.93-10.04h4l-4.92,15.32h-3.89l-2.64-9.85-2.6,9.85h-3.94Z"/>
      <path class="cls-1" d="M730.27,137.38v-3.75h4.05v3.75h-4.05Zm0,17.4v-15.32h4.05v15.32h-4.05Z"/>
      <path class="cls-1" d="M745.51,139.45v3.23h-2.77v6.18c0,1.25,.03,1.98,.08,2.18,.05,.21,.17,.38,.36,.51,.19,.13,.42,.2,.69,.2,.37,0,.92-.13,1.63-.39l.35,3.14c-.94,.4-2.01,.61-3.2,.61-.73,0-1.39-.12-1.98-.37-.59-.25-1.02-.56-1.29-.95-.28-.39-.46-.92-.57-1.58-.09-.47-.13-1.42-.13-2.86v-6.68h-1.86v-3.23h1.86v-3.04l4.07-2.37v5.41h2.77Z"/>
      <path class="cls-1" d="M752.36,133.63v7.78c1.31-1.53,2.87-2.29,4.69-2.29,.93,0,1.77,.17,2.53,.52,.75,.35,1.31,.79,1.69,1.33s.64,1.13,.78,1.79,.21,1.67,.21,3.04v8.99h-4.05v-8.09c0-1.61-.08-2.63-.23-3.06-.15-.43-.43-.78-.82-1.03-.39-.25-.88-.38-1.46-.38-.67,0-1.27,.16-1.8,.49-.53,.33-.92,.82-1.16,1.48-.24,.66-.37,1.63-.37,2.92v7.67h-4.05v-21.15h4.05Z"/>
      <path class="cls-1" d="M774.57,133.63h4.27v11.45c0,1.82,.05,3,.16,3.53,.18,.86,.62,1.56,1.31,2.08,.69,.52,1.63,.79,2.82,.79s2.13-.25,2.74-.74c.62-.5,.99-1.1,1.11-1.82,.12-.72,.19-1.92,.19-3.59v-11.7h4.27v11.11c0,2.54-.12,4.33-.35,5.38-.23,1.05-.66,1.93-1.28,2.65-.62,.72-1.45,1.3-2.49,1.72-1.04,.43-2.39,.64-4.07,.64-2.02,0-3.55-.23-4.59-.7-1.04-.47-1.87-1.07-2.47-1.82-.61-.75-1.01-1.53-1.2-2.34-.28-1.21-.42-3-.42-5.37v-11.28Z"/>
      <path class="cls-1" d="M794.48,150.4l4.07-.62c.17,.79,.53,1.39,1.05,1.8,.53,.41,1.27,.61,2.22,.61,1.05,0,1.84-.19,2.37-.58,.36-.27,.53-.63,.53-1.08,0-.31-.1-.56-.29-.77-.2-.19-.65-.37-1.36-.53-3.27-.72-5.34-1.38-6.22-1.98-1.21-.83-1.82-1.98-1.82-3.45,0-1.33,.52-2.44,1.57-3.35,1.05-.9,2.67-1.36,4.88-1.36s3.65,.34,4.67,1.02c1.02,.68,1.72,1.69,2.11,3.03l-3.82,.71c-.16-.6-.47-1.05-.93-1.37-.46-.32-1.11-.48-1.96-.48-1.07,0-1.83,.15-2.29,.45-.31,.21-.46,.49-.46,.82,0,.29,.13,.53,.4,.74,.36,.27,1.63,.65,3.79,1.14,2.16,.49,3.67,1.09,4.52,1.8,.85,.72,1.27,1.73,1.27,3.02,0,1.4-.59,2.61-1.76,3.62-1.17,1.01-2.91,1.51-5.21,1.51-2.09,0-3.74-.42-4.96-1.27-1.22-.85-2.01-1.99-2.39-3.45Z"/>
    </g>
  </g>
  <g>
    <path class="cls-1" d="M84.91,119.65h35.68c0,9.85-4,18.77-10.45,25.22-6.46,6.46-15.37,10.45-25.22,10.45v42.46c21.58,0,41.11-8.75,55.25-22.88,14.14-14.14,22.88-33.68,22.88-55.25h-35.68c0-9.85,4-18.77,10.45-25.22,6.46-6.46,15.37-10.45,25.22-10.45V41.52c-21.57,0-41.11,8.75-55.25,22.88-14.13,14.14-22.88,33.68-22.88,55.25Z"/>
    <path class="cls-1" d="M32.01,144.88c-6.46,6.46-15.37,10.45-25.22,10.45v42.46c21.57,0,41.11-8.75,55.25-22.88,14.13-14.14,22.88-33.68,22.88-55.25H42.46c0,9.85-4,18.77-10.45,25.22Z"/>
    <path class="cls-1" d="M45.85,80.58c21.58,0,39.07-17.49,39.07-39.07H42.46v39.06H19.54c-5.39,0-10.28,2.18-13.82,5.73-3.53,3.53-5.72,8.41-5.72,13.81,0,10.79,8.74,19.54,19.54,19.54h22.92v-39.07h3.39Z"/>
    <rect class="cls-1" x="163.05" y="-.94" width="42.46" height="42.46"/>
    <g>
      <path class="cls-1" d="M188.42,109.78h-3.37v-1.22h8.21v1.22h-3.39v9.87h-1.45v-9.87Z"/>
      <path class="cls-1" d="M203.83,114.78c-.08-1.55-.18-3.41-.16-4.79h-.05c-.38,1.3-.84,2.68-1.4,4.21l-1.96,5.38h-1.09l-1.79-5.28c-.53-1.56-.97-3-1.28-4.31h-.03c-.03,1.38-.11,3.24-.21,4.9l-.3,4.76h-1.36l.77-11.09h1.83l1.89,5.36c.46,1.37,.84,2.58,1.12,3.74h.05c.28-1.12,.67-2.34,1.17-3.74l1.98-5.36h1.83l.69,11.09h-1.4l-.28-4.87Z"/>
    </g>
  </g>
</svg>